<?xml version="1.0" encoding="utf-8"?>
<!-- Generator: Adobe Illustrator 19.0.0, SVG Export Plug-In . SVG Version: 6.00 Build 0)  -->
<svg version="1.1" id="Layer_1" xmlns="http://www.w3.org/2000/svg" xmlns:xlink="http://www.w3.org/1999/xlink" x="0px" y="0px"
	 viewBox="0 0 40 40" style="enable-background:new 0 0 40 40;" xml:space="preserve">
<style type="text/css">
	.st0{fill:none;stroke:#EF4568;stroke-width:2;stroke-miterlimit:10;}
	.st1{fill:#EF4568;}
</style>
<g id="XMLID_172_">
	<g id="XMLID_1633_">
		<g id="XMLID_29_">
			<path id="XMLID_30_" class="st0" d="M17,36.2c0,1-0.8,1.8-1.8,1.8H4.8c-1,0-1.8-0.8-1.8-1.8V25.8c0-1,0.8-1.8,1.8-1.8h10.4
				c1,0,1.8,0.8,1.8,1.8V36.2z"/>
		</g>
	</g>
	<g id="XMLID_224_">
		<g id="XMLID_184_">
			<g id="XMLID_201_">
				<g id="XMLID_202_">
					<path id="XMLID_203_" class="st1" d="M10,34.5c0,0.3-0.2,0.5-0.5,0.5h-3C6.2,35,6,34.8,6,34.5v-3C6,31.2,6.2,31,6.5,31h3
						c0.3,0,0.5,0.2,0.5,0.5V34.5z"/>
				</g>
			</g>
			<g id="XMLID_190_">
				<g id="XMLID_191_">
					<g id="XMLID_196_">
						<g id="XMLID_199_">
							<path id="XMLID_200_" class="st1" d="M25.4,23.1v9.2h4.1c1.9,0,3.5-1.6,3.5-3.5v-7.4h-5.8C26.2,21.3,25.4,22.1,25.4,23.1z"/>
						</g>
						<g id="XMLID_197_">
							<path id="XMLID_198_" class="st1" d="M29.5,8.2H18v0.7c0,0.4-0.3,0.7-0.7,0.7h-3.4c-0.4,0-0.7-0.3-0.7-0.7V8.2h-0.8
								C10.5,8.2,9,9.8,9,11.7v17c0,1.9,1.6,3.5,3.5,3.5h11V23c0-2,1.7-3.7,3.7-3.7H33v-7.6C33,9.8,31.4,8.2,29.5,8.2z"/>
						</g>
					</g>
					<g id="XMLID_192_">
						<g id="XMLID_193_">
							<path id="XMLID_194_" class="st1" d="M38,37.4c0,0.3-0.3,0.6-0.6,0.6h-2.7c-0.3,0-0.6-0.3-0.6-0.6v-2.7
								c0-0.3,0.3-0.6,0.6-0.6h2.7c0.3,0,0.6,0.3,0.6,0.6V37.4z"/>
						</g>
					</g>
				</g>
			</g>
			<g id="XMLID_185_">
				<g id="XMLID_186_">
					<path id="XMLID_187_" class="st1" d="M18.6,1.2H5C3.4,1.2,2.2,2.5,2.2,4v13.6c0,1.5,1.3,2.8,2.8,2.8h13.6
						c1.5,0,2.8-1.3,2.8-2.8V4C21.4,2.5,20.1,1.2,18.6,1.2z M17.8,8.8c0,0.4-0.3,0.7-0.7,0.7H14c-0.4,0-0.7-0.3-0.7-0.7V5.7
						C13.4,5.3,13.7,5,14,5h3.2c0.4,0,0.7,0.3,0.7,0.7V8.8z"/>
				</g>
			</g>
		</g>
	</g>
</g>
</svg>
